<svg width="1440" height="64" viewBox="0 0 1440 64" fill="none" xmlns="http://www.w3.org/2000/svg">
<style>
 path {
   color: #2b2568;
 }
</style>
<path d="M0 63.9999C7.34754e-07 55.5953 2.32793 47.273 6.85085 39.5081C11.3738 31.7433 18.0031 24.688 26.3604 18.745C34.7177 12.8021 44.6392 8.08788 55.5585 4.87158C66.4778 1.65528 78.181 -0.000130972 90 -0.000129938C101.819 -0.000128905 113.522 1.65528 124.442 4.87158C135.361 8.08789 145.282 12.8021 153.64 18.745C161.997 24.688 168.626 31.7433 173.149 39.5081C177.672 47.273 180 55.5953 180 63.9999L90 63.9999L0 63.9999Z" fill="currentColor"/>
<path d="M180 63.9999C180 55.5953 182.328 47.273 186.851 39.5081C191.374 31.7433 198.003 24.688 206.36 18.7451C214.718 12.8021 224.639 8.08791 235.558 4.87161C246.478 1.65531 258.181 -0.000100454 270 -9.94208e-05C281.819 -9.83875e-05 293.522 1.65531 304.442 4.87162C315.361 8.08792 325.282 12.8021 333.64 18.7451C341.997 24.688 348.626 31.7433 353.149 39.5082C357.672 47.273 360 55.5953 360 63.9999L270 63.9999L180 63.9999Z" fill="currentColor"/>
<path d="M360 63.9999C360 55.5953 362.328 47.273 366.851 39.5081C371.374 31.7433 378.003 24.688 386.36 18.7451C394.718 12.8021 404.639 8.08791 415.558 4.87161C426.478 1.65531 438.181 -0.000100454 450 -9.94208e-05C461.819 -9.83875e-05 473.522 1.65531 484.442 4.87162C495.361 8.08792 505.282 12.8021 513.64 18.7451C521.997 24.688 528.626 31.7433 533.149 39.5082C537.672 47.273 540 55.5953 540 63.9999L450 63.9999L360 63.9999Z" fill="currentColor"/>
<path d="M540 63.9999C540 55.5953 542.328 47.273 546.851 39.5082C551.374 31.7433 558.003 24.688 566.36 18.7451C574.718 12.8021 584.639 8.08794 595.558 4.87164C606.478 1.65534 618.181 -6.99365e-05 630 -6.89032e-05C641.819 -6.787e-05 653.522 1.65534 664.442 4.87165C675.361 8.08795 685.282 12.8022 693.64 18.7451C701.997 24.6881 708.626 31.7434 713.149 39.5082C717.672 47.273 720 55.5953 720 63.9999L630 63.9999L540 63.9999Z" fill="currentColor"/>
<path d="M720 63.9999C720 55.5953 722.328 47.273 726.851 39.5082C731.374 31.7433 738.003 24.688 746.36 18.7451C754.718 12.8021 764.639 8.08794 775.558 4.87164C786.478 1.65534 798.181 -6.99365e-05 810 -6.89032e-05C821.819 -6.787e-05 833.522 1.65534 844.442 4.87165C855.361 8.08795 865.282 12.8022 873.64 18.7451C881.997 24.6881 888.626 31.7434 893.149 39.5082C897.672 47.273 900 55.5953 900 63.9999L810 63.9999L720 63.9999Z" fill="currentColor"/>
<path d="M900 63.9999C900 55.5953 902.328 47.273 906.851 39.5082C911.374 31.7434 918.003 24.6881 926.36 18.7451C934.718 12.8022 944.639 8.08797 955.558 4.87167C966.478 1.65537 978.181 -3.94189e-05 990 -3.83856e-05C1001.82 -3.73524e-05 1013.52 1.65537 1024.44 4.87168C1035.36 8.08798 1045.28 12.8022 1053.64 18.7451C1062 24.6881 1068.63 31.7434 1073.15 39.5082C1077.67 47.2731 1080 55.5954 1080 64L990 64L900 63.9999Z" fill="currentColor"/>
<path d="M1080 63.9999C1080 55.5953 1082.33 47.273 1086.85 39.5082C1091.37 31.7434 1098 24.6881 1106.36 18.7451C1114.72 12.8022 1124.64 8.08797 1135.56 4.87167C1146.48 1.65537 1158.18 -3.94189e-05 1170 -3.83856e-05C1181.82 -3.73524e-05 1193.52 1.65537 1204.44 4.87168C1215.36 8.08798 1225.28 12.8022 1233.64 18.7451C1242 24.6881 1248.63 31.7434 1253.15 39.5082C1257.67 47.2731 1260 55.5954 1260 64L1170 64L1080 63.9999Z" fill="currentColor"/>
<path d="M1260 64C1260 55.5954 1262.33 47.2731 1266.85 39.5082C1271.37 31.7434 1278 24.6881 1286.36 18.7451C1294.72 12.8022 1304.64 8.088 1315.56 4.8717C1326.48 1.6554 1338.18 -8.9013e-06 1350 -7.86805e-06C1361.82 -6.8348e-06 1373.52 1.6554 1384.44 4.87171C1395.36 8.08801 1405.28 12.8022 1413.64 18.7452C1422 24.6881 1428.63 31.7434 1433.15 39.5083C1437.67 47.2731 1440 55.5954 1440 64L1350 64L1260 64Z" fill="currentColor"/>
</svg>
