<svg width="608" height="304" viewBox="0 0 608 304" fill="none" xmlns="http://www.w3.org/2000/svg">
<rect width="608" height="304" rx="12" fill="#56A41A"/>
<mask id="path-2-inside-1_718_215" fill="white">
<path fill-rule="evenodd" clip-rule="evenodd" d="M147.682 129.866C139.573 132.039 134.761 140.373 136.934 148.482L138.073 152.732L148.736 192.528L151.531 202.96C153.247 209.362 159.827 213.161 166.228 211.446L231.139 194.053C237.54 192.338 241.339 185.758 239.624 179.356L236.829 168.924L226.165 129.128L225.026 124.878C222.854 116.769 214.519 111.957 206.41 114.13L147.682 129.866Z"/>
</mask>
<path fill-rule="evenodd" clip-rule="evenodd" d="M147.682 129.866C139.573 132.039 134.761 140.373 136.934 148.482L138.073 152.732L148.736 192.528L151.531 202.96C153.247 209.362 159.827 213.161 166.228 211.446L231.139 194.053C237.54 192.338 241.339 185.758 239.624 179.356L236.829 168.924L226.165 129.128L225.026 124.878C222.854 116.769 214.519 111.957 206.41 114.13L147.682 129.866Z" fill="#282261"/>
<path d="M136.934 148.482L135.968 148.741L136.934 148.482ZM147.682 129.866L147.941 130.832L147.682 129.866ZM138.073 152.732L139.039 152.473L138.073 152.732ZM166.228 211.446L165.97 210.48L166.228 211.446ZM231.139 194.053L231.397 195.019L231.139 194.053ZM239.624 179.356L240.59 179.097L239.624 179.356ZM236.829 168.924L235.863 169.183L236.829 168.924ZM206.41 114.13L206.152 113.164L206.41 114.13ZM137.9 148.223C135.87 140.648 140.366 132.862 147.941 130.832L147.423 128.9C138.781 131.216 133.652 140.099 135.968 148.741L137.9 148.223ZM139.039 152.473L137.9 148.223L135.968 148.741L137.107 152.991L139.039 152.473ZM149.702 192.269L139.039 152.473L137.107 152.991L147.77 192.787L149.702 192.269ZM152.497 202.701L149.702 192.269L147.77 192.787L150.566 203.219L152.497 202.701ZM165.97 210.48C160.101 212.052 154.07 208.57 152.497 202.701L150.566 203.219C152.424 210.154 159.552 214.27 166.487 212.411L165.97 210.48ZM230.88 193.087L165.97 210.48L166.487 212.411L231.397 195.019L230.88 193.087ZM238.658 179.615C240.23 185.483 236.748 191.515 230.88 193.087L231.397 195.019C238.332 193.161 242.448 186.032 240.59 179.097L238.658 179.615ZM235.863 169.183L238.658 179.615L240.59 179.097L237.795 168.665L235.863 169.183ZM225.199 129.387L235.863 169.183L237.795 168.665L227.131 128.869L225.199 129.387ZM224.061 125.137L225.199 129.387L227.131 128.869L225.992 124.619L224.061 125.137ZM206.669 115.096C214.244 113.066 222.031 117.561 224.061 125.137L225.992 124.619C223.677 115.977 214.794 110.848 206.152 113.164L206.669 115.096ZM147.941 130.832L206.669 115.096L206.152 113.164L147.423 128.9L147.941 130.832Z" fill="#282261" mask="url(#path-2-inside-1_718_215)"/>
<path fill-rule="evenodd" clip-rule="evenodd" d="M148.174 131.701L206.902 115.965C213.997 114.064 221.29 118.274 223.191 125.37L234.993 169.416C236.895 176.511 232.684 183.804 225.589 185.705L166.861 201.441C159.765 203.342 152.473 199.132 150.571 192.037L138.769 147.99C136.868 140.895 141.079 133.602 148.174 131.701Z" fill="#E0D13A"/>
<path d="M194.946 163.912L195.562 166.212L185.002 169.042L180.059 150.594L182.796 149.86L187.123 166.009L194.946 163.912Z" fill="#282261"/>
<mask id="path-6-inside-2_718_215" fill="white">
<path fill-rule="evenodd" clip-rule="evenodd" d="M273.6 89C265.205 89 258.4 95.8053 258.4 104.2V108.6V149.8V160.6C258.4 167.227 263.773 172.6 270.4 172.6H337.6C344.227 172.6 349.6 167.227 349.6 160.6V149.8V108.6V104.2C349.6 95.8053 342.795 89 334.4 89H273.6Z"/>
</mask>
<path fill-rule="evenodd" clip-rule="evenodd" d="M273.6 89C265.205 89 258.4 95.8053 258.4 104.2V108.6V149.8V160.6C258.4 167.227 263.773 172.6 270.4 172.6H337.6C344.227 172.6 349.6 167.227 349.6 160.6V149.8V108.6V104.2C349.6 95.8053 342.795 89 334.4 89H273.6Z" fill="#282261"/>
<path d="M259.4 104.2C259.4 96.3576 265.758 90 273.6 90V88C264.653 88 257.4 95.253 257.4 104.2H259.4ZM259.4 108.6V104.2H257.4V108.6H259.4ZM259.4 149.8V108.6H257.4V149.8H259.4ZM259.4 160.6V149.8H257.4V160.6H259.4ZM270.4 171.6C264.325 171.6 259.4 166.675 259.4 160.6H257.4C257.4 167.78 263.22 173.6 270.4 173.6V171.6ZM337.6 171.6H270.4V173.6H337.6V171.6ZM348.6 160.6C348.6 166.675 343.675 171.6 337.6 171.6V173.6C344.78 173.6 350.6 167.78 350.6 160.6H348.6ZM348.6 149.8V160.6H350.6V149.8H348.6ZM348.6 108.6V149.8H350.6V108.6H348.6ZM348.6 104.2V108.6H350.6V104.2H348.6ZM334.4 90C342.242 90 348.6 96.3576 348.6 104.2H350.6C350.6 95.253 343.347 88 334.4 88V90ZM273.6 90H334.4V88H273.6V90Z" fill="#282261" mask="url(#path-6-inside-2_718_215)"/>
<path fill-rule="evenodd" clip-rule="evenodd" d="M273.6 90.9H334.4C341.745 90.9 347.7 96.8547 347.7 104.2V149.8C347.7 157.145 341.745 163.1 334.4 163.1H273.6C266.255 163.1 260.3 157.145 260.3 149.8V104.2C260.3 96.8547 266.255 90.9 273.6 90.9Z" fill="#FFCCE4"/>
<mask id="path-9-inside-3_718_215" fill="white">
<path fill-rule="evenodd" clip-rule="evenodd" d="M275.478 93.1304H332.522C339.413 93.1304 345 98.7171 345 105.609V148.391C345 155.283 339.413 160.87 332.522 160.87H275.478C268.587 160.87 263 155.283 263 148.391V105.609C263 98.7171 268.587 93.1304 275.478 93.1304Z"/>
</mask>
<path d="M332.522 89.1304H275.478V97.1304H332.522V89.1304ZM349 105.609C349 96.508 341.622 89.1304 332.522 89.1304V97.1304C337.204 97.1304 341 100.926 341 105.609H349ZM349 148.391V105.609H341V148.391H349ZM332.522 164.87C341.622 164.87 349 157.492 349 148.391H341C341 153.074 337.204 156.87 332.522 156.87V164.87ZM275.478 164.87H332.522V156.87H275.478V164.87ZM259 148.391C259 157.492 266.378 164.87 275.478 164.87V156.87C270.796 156.87 267 153.074 267 148.391H259ZM259 105.609V148.391H267V105.609H259ZM275.478 89.1304C266.378 89.1304 259 96.508 259 105.609H267C267 100.926 270.796 97.1304 275.478 97.1304V89.1304Z" fill="#005FCC" mask="url(#path-9-inside-3_718_215)"/>
<path d="M313.473 126.951C313.473 128.378 313.243 129.69 312.782 130.887C312.329 132.076 311.686 133.104 310.853 133.973C310.02 134.833 309.022 135.503 307.861 135.981C306.699 136.46 305.409 136.7 303.99 136.7C302.58 136.7 301.29 136.46 300.12 135.981C298.958 135.503 297.961 134.833 297.127 133.973C296.303 133.104 295.66 132.076 295.199 130.887C294.738 129.69 294.507 128.378 294.507 126.951C294.507 125.532 294.738 124.224 295.199 123.027C295.66 121.83 296.303 120.802 297.127 119.942C297.961 119.073 298.958 118.399 300.12 117.92C301.29 117.432 302.58 117.188 303.99 117.188C305.409 117.188 306.699 117.432 307.861 117.92C309.022 118.399 310.02 119.073 310.853 119.942C311.686 120.802 312.329 121.83 312.782 123.027C313.243 124.224 313.473 125.532 313.473 126.951ZM310.574 126.951C310.574 125.816 310.419 124.796 310.108 123.892C309.798 122.987 309.355 122.22 308.778 121.591C308.211 120.961 307.519 120.478 306.703 120.141C305.897 119.804 304.992 119.636 303.99 119.636C302.988 119.636 302.079 119.804 301.264 120.141C300.457 120.478 299.765 120.961 299.189 121.591C298.613 122.22 298.169 122.987 297.859 123.892C297.549 124.796 297.393 125.816 297.393 126.951C297.393 128.094 297.549 129.119 297.859 130.023C298.169 130.918 298.613 131.681 299.189 132.311C299.765 132.94 300.457 133.423 301.264 133.76C302.079 134.088 302.988 134.252 303.99 134.252C304.992 134.252 305.897 134.088 306.703 133.76C307.519 133.423 308.211 132.94 308.778 132.311C309.355 131.681 309.798 130.918 310.108 130.023C310.419 129.119 310.574 128.094 310.574 126.951Z" fill="#282261"/>
<mask id="path-12-inside-4_718_215" fill="white">
<path fill-rule="evenodd" clip-rule="evenodd" d="M401.319 113.734C393.211 111.561 384.876 116.373 382.703 124.482L381.567 128.724C381.566 128.727 381.565 128.729 381.564 128.732L368.106 178.96C366.391 185.362 370.19 191.942 376.591 193.657L441.501 211.05C447.903 212.765 454.483 208.966 456.198 202.565L458.994 192.133L469.657 152.336L470.796 148.086C472.968 139.978 468.156 131.643 460.048 129.47L401.319 113.734Z"/>
</mask>
<path fill-rule="evenodd" clip-rule="evenodd" d="M401.319 113.734C393.211 111.561 384.876 116.373 382.703 124.482L381.567 128.724C381.566 128.727 381.565 128.729 381.564 128.732L368.106 178.96C366.391 185.362 370.19 191.942 376.591 193.657L441.501 211.05C447.903 212.765 454.483 208.966 456.198 202.565L458.994 192.133L469.657 152.336L470.796 148.086C472.968 139.978 468.156 131.643 460.048 129.47L401.319 113.734Z" fill="#282261"/>
<path d="M382.703 124.482L381.737 124.223L382.703 124.482ZM401.319 113.734L401.578 112.768L401.319 113.734ZM381.567 128.724L382.532 128.983L382.533 128.983L381.567 128.724ZM376.591 193.657L376.332 194.623L376.591 193.657ZM441.501 211.05L441.76 210.084L441.501 211.05ZM460.048 129.47L459.789 130.436L460.048 129.47ZM383.669 124.741C385.699 117.166 393.485 112.67 401.061 114.7L401.578 112.768C392.936 110.452 384.053 115.581 381.737 124.223L383.669 124.741ZM382.533 128.983L383.669 124.741L381.737 124.223L380.601 128.465L382.533 128.983ZM382.53 128.991C382.531 128.988 382.532 128.986 382.532 128.983L380.601 128.464C380.6 128.467 380.599 128.47 380.598 128.473L382.53 128.991ZM369.072 179.219L382.53 128.991L380.598 128.473L367.14 178.701L369.072 179.219ZM376.85 192.691C370.982 191.119 367.499 185.087 369.072 179.219L367.14 178.701C365.282 185.637 369.397 192.765 376.332 194.623L376.85 192.691ZM441.76 210.084L376.85 192.691L376.332 194.623L441.243 212.016L441.76 210.084ZM455.232 202.306C453.66 208.174 447.628 211.656 441.76 210.084L441.243 212.016C448.178 213.874 455.306 209.758 457.164 202.823L455.232 202.306ZM458.028 191.874L455.232 202.306L457.164 202.823L459.959 192.391L458.028 191.874ZM468.691 152.078L458.028 191.874L459.959 192.391L470.623 152.595L468.691 152.078ZM469.83 147.828L468.691 152.078L470.623 152.595L471.762 148.345L469.83 147.828ZM459.789 130.436C467.364 132.466 471.859 140.252 469.83 147.828L471.762 148.345C474.077 139.703 468.949 130.82 460.306 128.504L459.789 130.436ZM401.061 114.7L459.789 130.436L460.306 128.504L401.578 112.768L401.061 114.7Z" fill="#282261" mask="url(#path-12-inside-4_718_215)"/>
<path fill-rule="evenodd" clip-rule="evenodd" d="M400.828 115.569L459.556 131.306C466.651 133.207 470.862 140.5 468.96 147.595L457.158 191.641C455.257 198.736 447.964 202.946 440.869 201.045L382.141 185.309C375.046 183.408 370.835 176.115 372.736 169.02L384.538 124.974C386.44 117.879 393.732 113.668 400.828 115.569Z" fill="#F1E8E4"/>
<path d="M425.228 166.851L424.612 169.151L414.052 166.321L418.995 147.873L421.731 148.606L417.404 164.755L425.228 166.851Z" fill="#282261"/>
</svg>
