<svg width="608" height="304" viewBox="0 0 608 304" fill="none" xmlns="http://www.w3.org/2000/svg">
<g clip-path="url(#clip0_718_68)">
<rect width="608" height="304" rx="12" fill="#0046F7"/>
<path d="M0 0H256L352 304H0V0Z" fill="#E0D13A"/>
<mask id="path-3-inside-1_718_68" fill="white">
<path fill-rule="evenodd" clip-rule="evenodd" d="M412 156C407.582 156 404 159.582 404 164V168V188V192C404 196.418 407.582 200 412 200H444C448.418 200 452 196.418 452 192V188V168V164C452 159.582 448.418 156 444 156H412Z"/>
</mask>
<path fill-rule="evenodd" clip-rule="evenodd" d="M412 156C407.582 156 404 159.582 404 164V168V188V192C404 196.418 407.582 200 412 200H444C448.418 200 452 196.418 452 192V188V168V164C452 159.582 448.418 156 444 156H412Z" fill="#E0D13A"/>
<path d="M405 164C405 160.134 408.134 157 412 157V155C407.029 155 403 159.029 403 164H405ZM405 168V164H403V168H405ZM405 188V168H403V188H405ZM405 192V188H403V192H405ZM412 199C408.134 199 405 195.866 405 192H403C403 196.971 407.029 201 412 201V199ZM444 199H412V201H444V199ZM451 192C451 195.866 447.866 199 444 199V201C448.971 201 453 196.971 453 192H451ZM451 188V192H453V188H451ZM451 168V188H453V168H451ZM451 164V168H453V164H451ZM444 157C447.866 157 451 160.134 451 164H453C453 159.029 448.971 155 444 155V157ZM412 157H444V155H412V157Z" fill="#E0D13A" mask="url(#path-3-inside-1_718_68)"/>
<path fill-rule="evenodd" clip-rule="evenodd" d="M412 157H444C447.866 157 451 160.134 451 164V188C451 191.866 447.866 195 444 195H412C408.134 195 405 191.866 405 188V164C405 160.134 408.134 157 412 157Z" fill="#0046F7"/>
<path d="M432.29 171.501C432.29 171.669 432.239 171.83 432.136 171.984L426.585 179.789H432.192V181H424.632V180.412C424.632 180.333 424.644 180.258 424.667 180.188C424.695 180.118 424.73 180.05 424.772 179.985L430.337 172.159H424.912V170.948H432.29V171.501Z" fill="#E0D13A"/>
<mask id="path-7-inside-2_718_68" fill="white">
<path fill-rule="evenodd" clip-rule="evenodd" d="M468 156C463.582 156 460 159.582 460 164V168V188V192C460 196.418 463.582 200 468 200H500C504.418 200 508 196.418 508 192V188V168V164C508 159.582 504.418 156 500 156H468Z"/>
</mask>
<path fill-rule="evenodd" clip-rule="evenodd" d="M468 156C463.582 156 460 159.582 460 164V168V188V192C460 196.418 463.582 200 468 200H500C504.418 200 508 196.418 508 192V188V168V164C508 159.582 504.418 156 500 156H468Z" fill="#E0D13A"/>
<path d="M461 164C461 160.134 464.134 157 468 157V155C463.029 155 459 159.029 459 164H461ZM461 168V164H459V168H461ZM461 188V168H459V188H461ZM461 192V188H459V192H461ZM468 199C464.134 199 461 195.866 461 192H459C459 196.971 463.029 201 468 201V199ZM500 199H468V201H500V199ZM507 192C507 195.866 503.866 199 500 199V201C504.971 201 509 196.971 509 192H507ZM507 188V192H509V188H507ZM507 168V188H509V168H507ZM507 164V168H509V164H507ZM500 157C503.866 157 507 160.134 507 164H509C509 159.029 504.971 155 500 155V157ZM468 157H500V155H468V157Z" fill="#E0D13A" mask="url(#path-7-inside-2_718_68)"/>
<path fill-rule="evenodd" clip-rule="evenodd" d="M468 157H500C503.866 157 507 160.134 507 164V188C507 191.866 503.866 195 500 195H468C464.134 195 461 191.866 461 188V164C461 160.134 464.134 157 468 157Z" fill="#0046F7"/>
<path d="M488.457 181H486.98C486.873 181 486.786 180.972 486.721 180.916C486.656 180.855 486.604 180.792 486.567 180.727L483.97 176.59C483.933 176.707 483.888 176.807 483.837 176.891L481.31 180.727C481.263 180.792 481.21 180.855 481.149 180.916C481.088 180.972 481.011 181 480.918 181H479.525L482.962 175.827L479.672 170.948H481.149C481.256 170.948 481.336 170.964 481.387 170.997C481.438 171.03 481.483 171.079 481.52 171.144L484.061 175.085C484.098 174.964 484.15 174.852 484.215 174.749L486.595 171.172C486.637 171.097 486.684 171.041 486.735 171.004C486.786 170.967 486.852 170.948 486.931 170.948H488.352L485.041 175.764L488.457 181Z" fill="#E0D13A"/>
<mask id="path-11-inside-3_718_68" fill="white">
<path fill-rule="evenodd" clip-rule="evenodd" d="M524 156C519.582 156 516 159.582 516 164V168V188V192C516 196.418 519.582 200 524 200H556C560.418 200 564 196.418 564 192V188V168V164C564 159.582 560.418 156 556 156H524Z"/>
</mask>
<path fill-rule="evenodd" clip-rule="evenodd" d="M524 156C519.582 156 516 159.582 516 164V168V188V192C516 196.418 519.582 200 524 200H556C560.418 200 564 196.418 564 192V188V168V164C564 159.582 560.418 156 556 156H524Z" fill="#E0D13A"/>
<path d="M517 164C517 160.134 520.134 157 524 157V155C519.029 155 515 159.029 515 164H517ZM517 168V164H515V168H517ZM517 188V168H515V188H517ZM517 192V188H515V192H517ZM524 199C520.134 199 517 195.866 517 192H515C515 196.971 519.029 201 524 201V199ZM556 199H524V201H556V199ZM563 192C563 195.866 559.866 199 556 199V201C560.971 201 565 196.971 565 192H563ZM563 188V192H565V188H563ZM563 168V188H565V168H563ZM563 164V168H565V164H563ZM556 157C559.866 157 563 160.134 563 164H565C565 159.029 560.971 155 556 155V157ZM524 157H556V155H524V157Z" fill="#E0D13A" mask="url(#path-11-inside-3_718_68)"/>
<path fill-rule="evenodd" clip-rule="evenodd" d="M524 157H556C559.866 157 563 160.134 563 164V188C563 191.866 559.866 195 556 195H524C520.134 195 517 191.866 517 188V164C517 160.134 520.134 157 524 157Z" fill="#0046F7"/>
<path d="M543.598 178.844C543.682 178.844 543.754 178.877 543.815 178.942L544.403 179.586C543.992 180.071 543.491 180.447 542.898 180.713C542.31 180.979 541.601 181.112 540.77 181.112C540.042 181.112 539.382 180.986 538.789 180.734C538.201 180.482 537.697 180.13 537.277 179.677C536.862 179.224 536.54 178.683 536.311 178.053C536.082 177.423 535.968 176.73 535.968 175.974C535.968 175.218 536.087 174.525 536.325 173.895C536.568 173.265 536.906 172.724 537.34 172.271C537.774 171.818 538.292 171.466 538.894 171.214C539.501 170.962 540.17 170.836 540.903 170.836C541.617 170.836 542.252 170.953 542.807 171.186C543.362 171.419 543.845 171.73 544.256 172.117L543.766 172.81C543.733 172.861 543.691 172.903 543.64 172.936C543.593 172.969 543.53 172.985 543.451 172.985C543.362 172.985 543.257 172.941 543.136 172.852C543.019 172.763 542.863 172.665 542.667 172.558C542.476 172.446 542.238 172.346 541.953 172.257C541.668 172.168 541.314 172.124 540.889 172.124C540.39 172.124 539.932 172.213 539.517 172.39C539.102 172.563 538.742 172.815 538.439 173.146C538.14 173.473 537.907 173.876 537.739 174.357C537.576 174.833 537.494 175.372 537.494 175.974C537.494 176.585 537.58 177.129 537.753 177.605C537.926 178.081 538.164 178.485 538.467 178.816C538.77 179.147 539.127 179.399 539.538 179.572C539.949 179.745 540.392 179.831 540.868 179.831C541.157 179.831 541.416 179.815 541.645 179.782C541.878 179.745 542.091 179.691 542.282 179.621C542.478 179.551 542.662 179.462 542.835 179.355C543.008 179.243 543.178 179.11 543.346 178.956C543.383 178.923 543.423 178.898 543.465 178.879C543.507 178.856 543.551 178.844 543.598 178.844Z" fill="#E0D13A"/>
<mask id="path-15-inside-4_718_68" fill="white">
<path fill-rule="evenodd" clip-rule="evenodd" d="M580 156C575.582 156 572 159.582 572 164V168V188V192C572 196.418 575.582 200 580 200H612C616.418 200 620 196.418 620 192V188V168V164C620 159.582 616.418 156 612 156H580Z"/>
</mask>
<path fill-rule="evenodd" clip-rule="evenodd" d="M580 156C575.582 156 572 159.582 572 164V168V188V192C572 196.418 575.582 200 580 200H612C616.418 200 620 196.418 620 192V188V168V164C620 159.582 616.418 156 612 156H580Z" fill="#E0D13A"/>
<path d="M573 164C573 160.134 576.134 157 580 157V155C575.029 155 571 159.029 571 164H573ZM573 168V164H571V168H573ZM573 188V168H571V188H573ZM573 192V188H571V192H573ZM580 199C576.134 199 573 195.866 573 192H571C571 196.971 575.029 201 580 201V199ZM612 199H580V201H612V199ZM619 192C619 195.866 615.866 199 612 199V201C616.971 201 621 196.971 621 192H619ZM619 188V192H621V188H619ZM619 168V188H621V168H619ZM619 164V168H621V164H619ZM612 157C615.866 157 619 160.134 619 164H621C621 159.029 616.971 155 612 155V157ZM580 157H612V155H580V157Z" fill="#E0D13A" mask="url(#path-15-inside-4_718_68)"/>
<path fill-rule="evenodd" clip-rule="evenodd" d="M580 157H612C615.866 157 619 160.134 619 164V188C619 191.866 615.866 195 612 195H580C576.134 195 573 191.866 573 188V164C573 160.134 576.134 157 580 157Z" fill="#0046F7"/>
<path d="M600.756 170.948L596.668 181H595.331L591.243 170.948H592.433C592.563 170.948 592.668 170.981 592.748 171.046C592.832 171.111 592.895 171.195 592.937 171.298L595.653 178.13C595.718 178.298 595.781 178.482 595.842 178.683C595.907 178.884 595.965 179.094 596.017 179.313C596.063 179.094 596.115 178.884 596.171 178.683C596.227 178.482 596.287 178.298 596.353 178.13L599.062 171.298C599.094 171.205 599.153 171.123 599.237 171.053C599.325 170.983 599.433 170.948 599.559 170.948H600.756Z" fill="#E0D13A"/>
<mask id="path-19-inside-5_718_68" fill="white">
<path fill-rule="evenodd" clip-rule="evenodd" d="M356 104C351.582 104 348 107.582 348 112V116V136V140C348 144.418 351.582 148 356 148H388C392.418 148 396 144.418 396 140V136V116V112C396 107.582 392.418 104 388 104H356Z"/>
</mask>
<path fill-rule="evenodd" clip-rule="evenodd" d="M356 104C351.582 104 348 107.582 348 112V116V136V140C348 144.418 351.582 148 356 148H388C392.418 148 396 144.418 396 140V136V116V112C396 107.582 392.418 104 388 104H356Z" fill="#E0D13A"/>
<path d="M349 112C349 108.134 352.134 105 356 105V103C351.029 103 347 107.029 347 112H349ZM349 116V112H347V116H349ZM349 136V116H347V136H349ZM349 140V136H347V140H349ZM356 147C352.134 147 349 143.866 349 140H347C347 144.971 351.029 149 356 149V147ZM388 147H356V149H388V147ZM395 140C395 143.866 391.866 147 388 147V149C392.971 149 397 144.971 397 140H395ZM395 136V140H397V136H395ZM395 116V136H397V116H395ZM395 112V116H397V112H395ZM388 105C391.866 105 395 108.134 395 112H397C397 107.029 392.971 103 388 103V105ZM356 105H388V103H356V105Z" fill="#E0D13A" mask="url(#path-19-inside-5_718_68)"/>
<path fill-rule="evenodd" clip-rule="evenodd" d="M356 105H388C391.866 105 395 108.134 395 112V136C395 139.866 391.866 143 388 143H356C352.134 143 349 139.866 349 136V112C349 108.134 352.134 105 356 105Z" fill="#0046F7"/>
<path d="M373.809 125.255L372.318 121.356C372.21 121.09 372.103 120.754 371.996 120.348C371.944 120.549 371.891 120.735 371.835 120.908C371.783 121.081 371.732 121.235 371.681 121.37L370.197 125.255H373.809ZM376.756 129H375.608C375.477 129 375.37 128.967 375.286 128.902C375.202 128.837 375.141 128.753 375.104 128.65L374.215 126.319H369.784L368.895 128.65C368.862 128.739 368.801 128.82 368.713 128.895C368.624 128.965 368.517 129 368.391 129H367.243L371.247 118.948H372.752L376.756 129Z" fill="#E0D13A"/>
<mask id="path-23-inside-6_718_68" fill="white">
<path fill-rule="evenodd" clip-rule="evenodd" d="M412 104C407.582 104 404 107.582 404 112V116V136V140C404 144.418 407.582 148 412 148H444C448.418 148 452 144.418 452 140V136V116V112C452 107.582 448.418 104 444 104H412Z"/>
</mask>
<path fill-rule="evenodd" clip-rule="evenodd" d="M412 104C407.582 104 404 107.582 404 112V116V136V140C404 144.418 407.582 148 412 148H444C448.418 148 452 144.418 452 140V136V116V112C452 107.582 448.418 104 444 104H412Z" fill="#E0D13A"/>
<path d="M405 112C405 108.134 408.134 105 412 105V103C407.029 103 403 107.029 403 112H405ZM405 116V112H403V116H405ZM405 136V116H403V136H405ZM405 140V136H403V140H405ZM412 147C408.134 147 405 143.866 405 140H403C403 144.971 407.029 149 412 149V147ZM444 147H412V149H444V147ZM451 140C451 143.866 447.866 147 444 147V149C448.971 149 453 144.971 453 140H451ZM451 136V140H453V136H451ZM451 116V136H453V116H451ZM451 112V116H453V112H451ZM444 105C447.866 105 451 108.134 451 112H453C453 107.029 448.971 103 444 103V105ZM412 105H444V103H412V105Z" fill="#E0D13A" mask="url(#path-23-inside-6_718_68)"/>
<path fill-rule="evenodd" clip-rule="evenodd" d="M412 105H444C447.866 105 451 108.134 451 112V136C451 139.866 447.866 143 444 143H412C408.134 143 405 139.866 405 136V112C405 108.134 408.134 105 412 105Z" fill="#0046F7"/>
<path d="M430.632 120.586C430.586 120.665 430.537 120.724 430.485 120.761C430.434 120.798 430.369 120.817 430.289 120.817C430.205 120.817 430.11 120.78 430.002 120.705C429.895 120.626 429.76 120.539 429.596 120.446C429.438 120.348 429.246 120.262 429.022 120.187C428.798 120.108 428.53 120.068 428.217 120.068C427.923 120.068 427.664 120.108 427.44 120.187C427.221 120.262 427.037 120.367 426.887 120.502C426.738 120.633 426.624 120.789 426.544 120.971C426.47 121.148 426.432 121.342 426.432 121.552C426.432 121.823 426.5 122.047 426.635 122.224C426.775 122.401 426.957 122.553 427.181 122.679C427.405 122.805 427.66 122.915 427.944 123.008C428.229 123.101 428.521 123.199 428.819 123.302C429.118 123.4 429.41 123.514 429.694 123.645C429.979 123.776 430.233 123.941 430.457 124.142C430.681 124.338 430.861 124.581 430.996 124.87C431.136 125.155 431.206 125.505 431.206 125.92C431.206 126.363 431.129 126.779 430.975 127.166C430.826 127.553 430.607 127.892 430.317 128.181C430.028 128.47 429.671 128.699 429.246 128.867C428.826 129.03 428.348 129.112 427.811 129.112C427.489 129.112 427.177 129.079 426.873 129.014C426.57 128.953 426.283 128.867 426.012 128.755C425.742 128.638 425.487 128.501 425.249 128.342C425.016 128.179 424.806 127.997 424.619 127.796L425.046 127.082C425.088 127.026 425.137 126.979 425.193 126.942C425.254 126.905 425.322 126.886 425.396 126.886C425.494 126.886 425.606 126.937 425.732 127.04C425.863 127.143 426.022 127.257 426.208 127.383C426.4 127.504 426.626 127.616 426.887 127.719C427.153 127.822 427.475 127.873 427.853 127.873C428.161 127.873 428.437 127.833 428.679 127.754C428.922 127.67 429.125 127.553 429.288 127.404C429.456 127.25 429.585 127.066 429.673 126.851C429.762 126.636 429.806 126.398 429.806 126.137C429.806 125.843 429.739 125.603 429.603 125.416C429.468 125.229 429.288 125.073 429.064 124.947C428.84 124.821 428.586 124.714 428.301 124.625C428.017 124.536 427.725 124.445 427.426 124.352C427.128 124.254 426.836 124.142 426.551 124.016C426.267 123.89 426.012 123.727 425.788 123.526C425.564 123.321 425.385 123.066 425.249 122.763C425.114 122.455 425.046 122.077 425.046 121.629C425.046 121.27 425.116 120.922 425.256 120.586C425.396 120.25 425.599 119.954 425.865 119.697C426.136 119.436 426.467 119.228 426.859 119.074C427.251 118.915 427.699 118.836 428.203 118.836C428.768 118.836 429.286 118.927 429.757 119.109C430.233 119.286 430.646 119.543 430.996 119.879L430.632 120.586Z" fill="#E0D13A"/>
<mask id="path-27-inside-7_718_68" fill="white">
<path fill-rule="evenodd" clip-rule="evenodd" d="M468 104C463.582 104 460 107.582 460 112V116V136V140C460 144.418 463.582 148 468 148H500C504.418 148 508 144.418 508 140V136V116V112C508 107.582 504.418 104 500 104H468Z"/>
</mask>
<path fill-rule="evenodd" clip-rule="evenodd" d="M468 104C463.582 104 460 107.582 460 112V116V136V140C460 144.418 463.582 148 468 148H500C504.418 148 508 144.418 508 140V136V116V112C508 107.582 504.418 104 500 104H468Z" fill="#E0D13A"/>
<path d="M461 112C461 108.134 464.134 105 468 105V103C463.029 103 459 107.029 459 112H461ZM461 116V112H459V116H461ZM461 136V116H459V136H461ZM461 140V136H459V140H461ZM468 147C464.134 147 461 143.866 461 140H459C459 144.971 463.029 149 468 149V147ZM500 147H468V149H500V147ZM507 140C507 143.866 503.866 147 500 147V149C504.971 149 509 144.971 509 140H507ZM507 136V140H509V136H507ZM507 116V136H509V116H507ZM507 112V116H509V112H507ZM500 105C503.866 105 507 108.134 507 112H509C509 107.029 504.971 103 500 103V105ZM468 105H500V103H468V105Z" fill="#E0D13A" mask="url(#path-27-inside-7_718_68)"/>
<path fill-rule="evenodd" clip-rule="evenodd" d="M468 105H500C503.866 105 507 108.134 507 112V136C507 139.866 503.866 143 500 143H468C464.134 143 461 139.866 461 136V112C461 108.134 464.134 105 468 105Z" fill="#0046F7"/>
<path d="M489.185 123.974C489.185 124.725 489.063 125.409 488.821 126.025C488.583 126.641 488.244 127.171 487.806 127.614C487.367 128.053 486.842 128.393 486.231 128.636C485.619 128.879 484.94 129 484.194 129H480.414V118.948H484.194C484.94 118.948 485.619 119.069 486.231 119.312C486.842 119.555 487.367 119.898 487.806 120.341C488.244 120.78 488.583 121.309 488.821 121.93C489.063 122.546 489.185 123.227 489.185 123.974ZM487.659 123.974C487.659 123.377 487.577 122.842 487.414 122.371C487.25 121.895 487.017 121.494 486.714 121.167C486.415 120.836 486.051 120.584 485.622 120.411C485.197 120.238 484.721 120.152 484.194 120.152H481.912V127.796H484.194C484.721 127.796 485.197 127.71 485.622 127.537C486.051 127.364 486.415 127.115 486.714 126.788C487.017 126.457 487.25 126.055 487.414 125.584C487.577 125.113 487.659 124.576 487.659 123.974Z" fill="#E0D13A"/>
<mask id="path-31-inside-8_718_68" fill="white">
<path fill-rule="evenodd" clip-rule="evenodd" d="M524 104C519.582 104 516 107.582 516 112V116V136V140C516 144.418 519.582 148 524 148H556C560.418 148 564 144.418 564 140V136V116V112C564 107.582 560.418 104 556 104H524Z"/>
</mask>
<path fill-rule="evenodd" clip-rule="evenodd" d="M524 104C519.582 104 516 107.582 516 112V116V136V140C516 144.418 519.582 148 524 148H556C560.418 148 564 144.418 564 140V136V116V112C564 107.582 560.418 104 556 104H524Z" fill="#E0D13A"/>
<path d="M517 112C517 108.134 520.134 105 524 105V103C519.029 103 515 107.029 515 112H517ZM517 116V112H515V116H517ZM517 136V116H515V136H517ZM517 140V136H515V140H517ZM524 147C520.134 147 517 143.866 517 140H515C515 144.971 519.029 149 524 149V147ZM556 147H524V149H556V147ZM563 140C563 143.866 559.866 147 556 147V149C560.971 149 565 144.971 565 140H563ZM563 136V140H565V136H563ZM563 116V136H565V116H563ZM563 112V116H565V112H563ZM556 105C559.866 105 563 108.134 563 112H565C565 107.029 560.971 103 556 103V105ZM524 105H556V103H524V105Z" fill="#E0D13A" mask="url(#path-31-inside-8_718_68)"/>
<path fill-rule="evenodd" clip-rule="evenodd" d="M524 105H556C559.866 105 563 108.134 563 112V136C563 139.866 559.866 143 556 143H524C520.134 143 517 139.866 517 136V112C517 108.134 520.134 105 524 105Z" fill="#0046F7"/>
<path d="M538.779 120.159V123.526H542.811V124.737H538.779V129H537.281V118.948H543.511V120.159H538.779Z" fill="#E0D13A"/>
<mask id="path-35-inside-9_718_68" fill="white">
<path fill-rule="evenodd" clip-rule="evenodd" d="M580 104C575.582 104 572 107.582 572 112V116V136V140C572 144.418 575.582 148 580 148H612C616.418 148 620 144.418 620 140V136V116V112C620 107.582 616.418 104 612 104H580Z"/>
</mask>
<path fill-rule="evenodd" clip-rule="evenodd" d="M580 104C575.582 104 572 107.582 572 112V116V136V140C572 144.418 575.582 148 580 148H612C616.418 148 620 144.418 620 140V136V116V112C620 107.582 616.418 104 612 104H580Z" fill="#E0D13A"/>
<path d="M573 112C573 108.134 576.134 105 580 105V103C575.029 103 571 107.029 571 112H573ZM573 116V112H571V116H573ZM573 136V116H571V136H573ZM573 140V136H571V140H573ZM580 147C576.134 147 573 143.866 573 140H571C571 144.971 575.029 149 580 149V147ZM612 147H580V149H612V147ZM619 140C619 143.866 615.866 147 612 147V149C616.971 149 621 144.971 621 140H619ZM619 136V140H621V136H619ZM619 116V136H621V116H619ZM619 112V116H621V112H619ZM612 105C615.866 105 619 108.134 619 112H621C621 107.029 616.971 103 612 103V105ZM580 105H612V103H580V105Z" fill="#E0D13A" mask="url(#path-35-inside-9_718_68)"/>
<path fill-rule="evenodd" clip-rule="evenodd" d="M580 105H612C615.866 105 619 108.134 619 112V136C619 139.866 615.866 143 612 143H580C576.134 143 573 139.866 573 136V112C573 108.134 576.134 105 580 105Z" fill="#0046F7"/>
<path d="M600.837 124.107V128.027C600.328 128.391 599.787 128.664 599.213 128.846C598.639 129.023 598.013 129.112 597.337 129.112C596.525 129.112 595.79 128.986 595.132 128.734C594.478 128.482 593.921 128.13 593.459 127.677C592.997 127.224 592.64 126.683 592.388 126.053C592.14 125.423 592.017 124.73 592.017 123.974C592.017 123.213 592.136 122.518 592.374 121.888C592.616 121.253 592.962 120.712 593.41 120.264C593.858 119.811 594.399 119.461 595.034 119.214C595.673 118.962 596.389 118.836 597.183 118.836C597.584 118.836 597.955 118.866 598.296 118.927C598.641 118.988 598.961 119.074 599.255 119.186C599.549 119.298 599.819 119.433 600.067 119.592C600.319 119.746 600.552 119.921 600.767 120.117L600.34 120.789C600.274 120.896 600.188 120.964 600.081 120.992C599.973 121.02 599.857 120.994 599.731 120.915C599.609 120.845 599.474 120.763 599.325 120.67C599.18 120.577 599.005 120.49 598.8 120.411C598.599 120.332 598.363 120.264 598.093 120.208C597.822 120.152 597.502 120.124 597.134 120.124C596.583 120.124 596.086 120.215 595.643 120.397C595.199 120.574 594.821 120.831 594.509 121.167C594.196 121.503 593.956 121.909 593.788 122.385C593.62 122.856 593.536 123.386 593.536 123.974C593.536 124.59 593.624 125.143 593.802 125.633C593.979 126.118 594.229 126.531 594.551 126.872C594.877 127.208 595.272 127.465 595.734 127.642C596.2 127.819 596.721 127.908 597.295 127.908C597.519 127.908 597.726 127.896 597.918 127.873C598.114 127.845 598.3 127.808 598.478 127.761C598.655 127.714 598.825 127.656 598.989 127.586C599.157 127.516 599.322 127.439 599.486 127.355V125.248H598.002C597.908 125.248 597.831 125.22 597.771 125.164C597.715 125.108 597.687 125.038 597.687 124.954V124.107H600.837Z" fill="#E0D13A"/>
<mask id="path-39-inside-10_718_68" fill="white">
<path fill-rule="evenodd" clip-rule="evenodd" d="M356 52C351.582 52 348 55.5817 348 60V64V84V88C348 92.4183 351.582 96 356 96H388C392.418 96 396 92.4183 396 88V84V64V60C396 55.5817 392.418 52 388 52H356Z"/>
</mask>
<path fill-rule="evenodd" clip-rule="evenodd" d="M356 52C351.582 52 348 55.5817 348 60V64V84V88C348 92.4183 351.582 96 356 96H388C392.418 96 396 92.4183 396 88V84V64V60C396 55.5817 392.418 52 388 52H356Z" fill="#E0D13A"/>
<path d="M349 60C349 56.134 352.134 53 356 53V51C351.029 51 347 55.0294 347 60H349ZM349 64V60H347V64H349ZM349 84V64H347V84H349ZM349 88V84H347V88H349ZM356 95C352.134 95 349 91.866 349 88H347C347 92.9706 351.029 97 356 97V95ZM388 95H356V97H388V95ZM395 88C395 91.866 391.866 95 388 95V97C392.971 97 397 92.9706 397 88H395ZM395 84V88H397V84H395ZM395 64V84H397V64H395ZM395 60V64H397V60H395ZM388 53C391.866 53 395 56.134 395 60H397C397 55.0294 392.971 51 388 51V53ZM356 53H388V51H356V53Z" fill="#E0D13A" mask="url(#path-39-inside-10_718_68)"/>
<path fill-rule="evenodd" clip-rule="evenodd" d="M356 53H388C391.866 53 395 56.134 395 60V84C395 87.866 391.866 91 388 91H356C352.134 91 349 87.866 349 84V60C349 56.134 352.134 53 356 53Z" fill="#0046F7"/>
<path d="M368.53 71.974C368.53 72.576 368.612 73.115 368.775 73.591C368.938 74.0623 369.172 74.4637 369.475 74.795C369.778 75.1263 370.142 75.3807 370.567 75.558C370.996 75.7307 371.475 75.817 372.002 75.817C372.529 75.817 373.005 75.7307 373.43 75.558C373.859 75.3807 374.223 75.1263 374.522 74.795C374.825 74.4637 375.059 74.0623 375.222 73.591C375.385 73.115 375.467 72.576 375.467 71.974C375.467 71.3767 375.385 70.84 375.222 70.364C375.059 69.888 374.825 69.4843 374.522 69.153C374.223 68.8217 373.859 68.5673 373.43 68.39C373.005 68.2127 372.529 68.124 372.002 68.124C371.475 68.124 370.996 68.2127 370.567 68.39C370.142 68.5673 369.778 68.8217 369.475 69.153C369.172 69.4843 368.938 69.888 368.775 70.364C368.612 70.84 368.53 71.3767 368.53 71.974ZM377.476 79.044H376.244C376.062 79.044 375.901 79.0183 375.761 78.967C375.621 78.9203 375.49 78.8317 375.369 78.701L373.675 76.853C373.162 77.021 372.604 77.105 372.002 77.105C371.26 77.105 370.581 76.979 369.965 76.727C369.354 76.475 368.829 76.1227 368.39 75.67C367.956 75.2127 367.618 74.6713 367.375 74.046C367.132 73.416 367.011 72.7253 367.011 71.974C367.011 71.2273 367.132 70.539 367.375 69.909C367.618 69.279 367.956 68.7377 368.39 68.285C368.829 67.8277 369.354 67.473 369.965 67.221C370.581 66.9643 371.26 66.836 372.002 66.836C372.749 66.836 373.428 66.9643 374.039 67.221C374.65 67.473 375.175 67.8277 375.614 68.285C376.053 68.7377 376.391 69.279 376.629 69.909C376.872 70.539 376.993 71.2273 376.993 71.974C376.993 72.4407 376.944 72.8863 376.846 73.311C376.753 73.731 376.617 74.123 376.44 74.487C376.263 74.851 376.043 75.1823 375.782 75.481C375.525 75.7797 375.234 76.041 374.907 76.265L377.476 79.044Z" fill="#E0D13A"/>
<mask id="path-43-inside-11_718_68" fill="white">
<path fill-rule="evenodd" clip-rule="evenodd" d="M412 52C407.582 52 404 55.5817 404 60V64V84V88C404 92.4183 407.582 96 412 96H444C448.418 96 452 92.4183 452 88V84V64V60C452 55.5817 448.418 52 444 52H412Z"/>
</mask>
<path fill-rule="evenodd" clip-rule="evenodd" d="M412 52C407.582 52 404 55.5817 404 60V64V84V88C404 92.4183 407.582 96 412 96H444C448.418 96 452 92.4183 452 88V84V64V60C452 55.5817 448.418 52 444 52H412Z" fill="#E0D13A"/>
<path d="M405 60C405 56.134 408.134 53 412 53V51C407.029 51 403 55.0294 403 60H405ZM405 64V60H403V64H405ZM405 84V64H403V84H405ZM405 88V84H403V88H405ZM412 95C408.134 95 405 91.866 405 88H403C403 92.9706 407.029 97 412 97V95ZM444 95H412V97H444V95ZM451 88C451 91.866 447.866 95 444 95V97C448.971 97 453 92.9706 453 88H451ZM451 84V88H453V84H451ZM451 64V84H453V64H451ZM451 60V64H453V60H451ZM444 53C447.866 53 451 56.134 451 60H453C453 55.0294 448.971 51 444 51V53ZM412 53H444V51H412V53Z" fill="#E0D13A" mask="url(#path-43-inside-11_718_68)"/>
<path fill-rule="evenodd" clip-rule="evenodd" d="M412 53H444C447.866 53 451 56.134 451 60V84C451 87.866 447.866 91 444 91H412C408.134 91 405 87.866 405 84V60C405 56.134 408.134 53 412 53Z" fill="#0046F7"/>
<path d="M435.591 66.948L432.455 77H431.111L428.661 69.545C428.605 69.3957 428.556 69.216 428.514 69.006C428.462 69.2207 428.413 69.4003 428.367 69.545L425.889 77H424.552L421.416 66.948H422.662C422.792 66.948 422.902 66.9807 422.991 67.046C423.079 67.1067 423.138 67.1907 423.166 67.298L425.147 74.025C425.184 74.1557 425.217 74.298 425.245 74.452C425.277 74.606 425.31 74.767 425.343 74.935C425.375 74.767 425.408 74.606 425.441 74.452C425.478 74.298 425.52 74.1557 425.567 74.025L427.835 67.298C427.863 67.2047 427.921 67.123 428.01 67.053C428.103 66.983 428.213 66.948 428.339 66.948H428.766C428.896 66.948 429.004 66.9807 429.088 67.046C429.172 67.1113 429.232 67.1953 429.27 67.298L431.531 74.025C431.615 74.2817 431.689 74.5733 431.755 74.9C431.811 74.578 431.871 74.2863 431.937 74.025L433.925 67.298C433.948 67.2047 434.006 67.123 434.1 67.053C434.193 66.983 434.303 66.948 434.429 66.948H435.591Z" fill="#E0D13A"/>
<mask id="path-47-inside-12_718_68" fill="white">
<path fill-rule="evenodd" clip-rule="evenodd" d="M468 52C463.582 52 460 55.5817 460 60V64V84V88C460 92.4183 463.582 96 468 96H500C504.418 96 508 92.4183 508 88V84V64V60C508 55.5817 504.418 52 500 52H468Z"/>
</mask>
<path fill-rule="evenodd" clip-rule="evenodd" d="M468 52C463.582 52 460 55.5817 460 60V64V84V88C460 92.4183 463.582 96 468 96H500C504.418 96 508 92.4183 508 88V84V64V60C508 55.5817 504.418 52 500 52H468Z" fill="#E0D13A"/>
<path d="M461 60C461 56.134 464.134 53 468 53V51C463.029 51 459 55.0294 459 60H461ZM461 64V60H459V64H461ZM461 84V64H459V84H461ZM461 88V84H459V88H461ZM468 95C464.134 95 461 91.866 461 88H459C459 92.9706 463.029 97 468 97V95ZM500 95H468V97H500V95ZM507 88C507 91.866 503.866 95 500 95V97C504.971 97 509 92.9706 509 88H507ZM507 84V88H509V84H507ZM507 64V84H509V64H507ZM507 60V64H509V60H507ZM500 53C503.866 53 507 56.134 507 60H509C509 55.0294 504.971 51 500 51V53ZM468 53H500V51H468V53Z" fill="#E0D13A" mask="url(#path-47-inside-12_718_68)"/>
<path fill-rule="evenodd" clip-rule="evenodd" d="M468 53H500C503.866 53 507 56.134 507 60V84C507 87.866 503.866 91 500 91H468C464.134 91 461 87.866 461 84V60C461 56.134 464.134 53 468 53Z" fill="#0046F7"/>
<path d="M487.936 75.789L487.929 77H481.699V66.948H487.929V68.159H483.197V71.344H487.005V72.513H483.197V75.789H487.936Z" fill="#E0D13A"/>
<mask id="path-51-inside-13_718_68" fill="white">
<path fill-rule="evenodd" clip-rule="evenodd" d="M524 52C519.582 52 516 55.5817 516 60V64V84V88C516 92.4183 519.582 96 524 96H556C560.418 96 564 92.4183 564 88V84V64V60C564 55.5817 560.418 52 556 52H524Z"/>
</mask>
<path fill-rule="evenodd" clip-rule="evenodd" d="M524 52C519.582 52 516 55.5817 516 60V64V84V88C516 92.4183 519.582 96 524 96H556C560.418 96 564 92.4183 564 88V84V64V60C564 55.5817 560.418 52 556 52H524Z" fill="#E0D13A"/>
<path d="M517 60C517 56.134 520.134 53 524 53V51C519.029 51 515 55.0294 515 60H517ZM517 64V60H515V64H517ZM517 84V64H515V84H517ZM517 88V84H515V88H517ZM524 95C520.134 95 517 91.866 517 88H515C515 92.9706 519.029 97 524 97V95ZM556 95H524V97H556V95ZM563 88C563 91.866 559.866 95 556 95V97C560.971 97 565 92.9706 565 88H563ZM563 84V88H565V84H563ZM563 64V84H565V64H563ZM563 60V64H565V60H563ZM556 53C559.866 53 563 56.134 563 60H565C565 55.0294 560.971 51 556 51V53ZM524 53H556V51H524V53Z" fill="#E0D13A" mask="url(#path-51-inside-13_718_68)"/>
<path fill-rule="evenodd" clip-rule="evenodd" d="M524 53H556C559.866 53 563 56.134 563 60V84C563 87.866 559.866 91 556 91H524C520.134 91 517 87.866 517 84V60C517 56.134 520.134 53 524 53Z" fill="#0046F7"/>
<path d="M540.172 71.792C540.555 71.792 540.891 71.7453 541.18 71.652C541.474 71.5587 541.719 71.428 541.915 71.26C542.111 71.0873 542.258 70.8843 542.356 70.651C542.454 70.413 542.503 70.1517 542.503 69.867C542.503 69.2883 542.312 68.852 541.929 68.558C541.551 68.264 540.982 68.117 540.221 68.117H538.814V71.792H540.172ZM544.862 77H543.532C543.266 77 543.072 76.895 542.951 76.685L540.466 73.199C540.387 73.0823 540.3 73.0007 540.207 72.954C540.114 72.9027 539.974 72.877 539.787 72.877H538.814V77H537.323V66.948H540.221C540.87 66.948 541.427 67.0157 541.894 67.151C542.365 67.2817 542.753 67.4707 543.056 67.718C543.364 67.9607 543.59 68.2547 543.735 68.6C543.884 68.9453 543.959 69.3327 543.959 69.762C543.959 70.112 543.905 70.441 543.798 70.749C543.691 71.057 543.532 71.3347 543.322 71.582C543.117 71.8247 542.865 72.0347 542.566 72.212C542.267 72.3893 541.929 72.5247 541.551 72.618C541.738 72.73 541.899 72.8863 542.034 73.087L544.862 77Z" fill="#E0D13A"/>
<mask id="path-55-inside-14_718_68" fill="white">
<path fill-rule="evenodd" clip-rule="evenodd" d="M580 52C575.582 52 572 55.5817 572 60V64V84V88C572 92.4183 575.582 96 580 96H612C616.418 96 620 92.4183 620 88V84V64V60C620 55.5817 616.418 52 612 52H580Z"/>
</mask>
<path fill-rule="evenodd" clip-rule="evenodd" d="M580 52C575.582 52 572 55.5817 572 60V64V84V88C572 92.4183 575.582 96 580 96H612C616.418 96 620 92.4183 620 88V84V64V60C620 55.5817 616.418 52 612 52H580Z" fill="#E0D13A"/>
<path d="M573 60C573 56.134 576.134 53 580 53V51C575.029 51 571 55.0294 571 60H573ZM573 64V60H571V64H573ZM573 84V64H571V84H573ZM573 88V84H571V88H573ZM580 95C576.134 95 573 91.866 573 88H571C571 92.9706 575.029 97 580 97V95ZM612 95H580V97H612V95ZM619 88C619 91.866 615.866 95 612 95V97C616.971 97 621 92.9706 621 88H619ZM619 84V88H621V84H619ZM619 64V84H621V64H619ZM619 60V64H621V60H619ZM612 53C615.866 53 619 56.134 619 60H621C621 55.0294 616.971 51 612 51V53ZM580 53H612V51H580V53Z" fill="#E0D13A" mask="url(#path-55-inside-14_718_68)"/>
<path fill-rule="evenodd" clip-rule="evenodd" d="M580 53H612C615.866 53 619 56.134 619 60V84C619 87.866 615.866 91 612 91H580C576.134 91 573 87.866 573 84V60C573 56.134 576.134 53 580 53Z" fill="#0046F7"/>
<path d="M600.443 68.194H597.251V77H595.767V68.194H592.561V66.948H600.443V68.194Z" fill="#E0D13A"/>
<path d="M600.756 222.948L596.668 233H595.331L591.243 222.948H592.433C592.563 222.948 592.668 222.981 592.748 223.046C592.832 223.111 592.895 223.195 592.937 223.298L595.653 230.13C595.718 230.298 595.781 230.482 595.842 230.683C595.907 230.884 595.965 231.094 596.017 231.313C596.063 231.094 596.115 230.884 596.171 230.683C596.227 230.482 596.287 230.298 596.353 230.13L599.062 223.298C599.094 223.205 599.153 223.123 599.237 223.053C599.325 222.983 599.433 222.948 599.559 222.948H600.756Z" fill="#E0D13A"/>
<rect x="460" y="208" width="202" height="44" rx="7" fill="#E0D13A"/>
<rect x="461" y="209" width="200" height="38" rx="7" fill="#0046F7"/>
<path d="M599.258 234.099V235.009H593.742V234.099H599.258Z" fill="#E0D13A"/>
<mask id="path-63-inside-15_718_68" fill="white">
<path fill-rule="evenodd" clip-rule="evenodd" d="M52 130C47.5817 130 44 133.582 44 138V142V162V166C44 170.418 47.5817 174 52 174H84C88.4183 174 92 170.418 92 166V162V142V138C92 133.582 88.4183 130 84 130H52Z"/>
</mask>
<path fill-rule="evenodd" clip-rule="evenodd" d="M52 130C47.5817 130 44 133.582 44 138V142V162V166C44 170.418 47.5817 174 52 174H84C88.4183 174 92 170.418 92 166V162V142V138C92 133.582 88.4183 130 84 130H52Z" fill="#0046F7"/>
<path d="M45 138C45 134.134 48.134 131 52 131V129C47.0294 129 43 133.029 43 138H45ZM45 142V138H43V142H45ZM45 162V142H43V162H45ZM45 166V162H43V166H45ZM52 173C48.134 173 45 169.866 45 166H43C43 170.971 47.0294 175 52 175V173ZM84 173H52V175H84V173ZM91 166C91 169.866 87.866 173 84 173V175C88.9706 175 93 170.971 93 166H91ZM91 162V166H93V162H91ZM91 142V162H93V142H91ZM91 138V142H93V138H91ZM84 131C87.866 131 91 134.134 91 138H93C93 133.029 88.9706 129 84 129V131ZM52 131H84V129H52V131Z" fill="#0046F7" mask="url(#path-63-inside-15_718_68)"/>
<path fill-rule="evenodd" clip-rule="evenodd" d="M52 131H84C87.866 131 91 134.134 91 138V162C91 165.866 87.866 169 84 169H52C48.134 169 45 165.866 45 162V138C45 134.134 48.134 131 52 131Z" fill="#E0D13A"/>
<path d="M69.8085 151.255L68.3175 147.356C68.2102 147.09 68.1028 146.754 67.9955 146.348C67.9442 146.549 67.8905 146.735 67.8345 146.908C67.7832 147.081 67.7318 147.235 67.6805 147.37L66.1965 151.255H69.8085ZM72.7555 155H71.6075C71.4768 155 71.3695 154.967 71.2855 154.902C71.2015 154.837 71.1408 154.753 71.1035 154.65L70.2145 152.319H65.7835L64.8945 154.65C64.8618 154.739 64.8012 154.82 64.7125 154.895C64.6238 154.965 64.5165 155 64.3905 155H63.2425L67.2465 144.948H68.7515L72.7555 155Z" fill="#0046F7"/>
<mask id="path-67-inside-16_718_68" fill="white">
<path fill-rule="evenodd" clip-rule="evenodd" d="M108 130C103.582 130 100 133.582 100 138V142V162V166C100 170.418 103.582 174 108 174H140C144.418 174 148 170.418 148 166V162V142V138C148 133.582 144.418 130 140 130H108Z"/>
</mask>
<path fill-rule="evenodd" clip-rule="evenodd" d="M108 130C103.582 130 100 133.582 100 138V142V162V166C100 170.418 103.582 174 108 174H140C144.418 174 148 170.418 148 166V162V142V138C148 133.582 144.418 130 140 130H108Z" fill="#0046F7"/>
<path d="M101 138C101 134.134 104.134 131 108 131V129C103.029 129 99 133.029 99 138H101ZM101 142V138H99V142H101ZM101 162V142H99V162H101ZM101 166V162H99V166H101ZM108 173C104.134 173 101 169.866 101 166H99C99 170.971 103.029 175 108 175V173ZM140 173H108V175H140V173ZM147 166C147 169.866 143.866 173 140 173V175C144.971 175 149 170.971 149 166H147ZM147 162V166H149V162H147ZM147 142V162H149V142H147ZM147 138V142H149V138H147ZM140 131C143.866 131 147 134.134 147 138H149C149 133.029 144.971 129 140 129V131ZM108 131H140V129H108V131Z" fill="#0046F7" mask="url(#path-67-inside-16_718_68)"/>
<path fill-rule="evenodd" clip-rule="evenodd" d="M108 131H140C143.866 131 147 134.134 147 138V162C147 165.866 143.866 169 140 169H108C104.134 169 101 165.866 101 162V138C101 134.134 104.134 131 108 131Z" fill="#E0D13A"/>
<path d="M126.632 146.586C126.586 146.665 126.537 146.724 126.485 146.761C126.434 146.798 126.369 146.817 126.289 146.817C126.205 146.817 126.11 146.78 126.002 146.705C125.895 146.626 125.76 146.539 125.596 146.446C125.438 146.348 125.246 146.262 125.022 146.187C124.798 146.108 124.53 146.068 124.217 146.068C123.923 146.068 123.664 146.108 123.44 146.187C123.221 146.262 123.037 146.367 122.887 146.502C122.738 146.633 122.624 146.789 122.544 146.971C122.47 147.148 122.432 147.342 122.432 147.552C122.432 147.823 122.5 148.047 122.635 148.224C122.775 148.401 122.957 148.553 123.181 148.679C123.405 148.805 123.66 148.915 123.944 149.008C124.229 149.101 124.521 149.199 124.819 149.302C125.118 149.4 125.41 149.514 125.694 149.645C125.979 149.776 126.233 149.941 126.457 150.142C126.681 150.338 126.861 150.581 126.996 150.87C127.136 151.155 127.206 151.505 127.206 151.92C127.206 152.363 127.129 152.779 126.975 153.166C126.826 153.553 126.607 153.892 126.317 154.181C126.028 154.47 125.671 154.699 125.246 154.867C124.826 155.03 124.348 155.112 123.811 155.112C123.489 155.112 123.177 155.079 122.873 155.014C122.57 154.953 122.283 154.867 122.012 154.755C121.742 154.638 121.487 154.501 121.249 154.342C121.016 154.179 120.806 153.997 120.619 153.796L121.046 153.082C121.088 153.026 121.137 152.979 121.193 152.942C121.254 152.905 121.322 152.886 121.396 152.886C121.494 152.886 121.606 152.937 121.732 153.04C121.863 153.143 122.022 153.257 122.208 153.383C122.4 153.504 122.626 153.616 122.887 153.719C123.153 153.822 123.475 153.873 123.853 153.873C124.161 153.873 124.437 153.833 124.679 153.754C124.922 153.67 125.125 153.553 125.288 153.404C125.456 153.25 125.585 153.066 125.673 152.851C125.762 152.636 125.806 152.398 125.806 152.137C125.806 151.843 125.739 151.603 125.603 151.416C125.468 151.229 125.288 151.073 125.064 150.947C124.84 150.821 124.586 150.714 124.301 150.625C124.017 150.536 123.725 150.445 123.426 150.352C123.128 150.254 122.836 150.142 122.551 150.016C122.267 149.89 122.012 149.727 121.788 149.526C121.564 149.321 121.385 149.066 121.249 148.763C121.114 148.455 121.046 148.077 121.046 147.629C121.046 147.27 121.116 146.922 121.256 146.586C121.396 146.25 121.599 145.954 121.865 145.697C122.136 145.436 122.467 145.228 122.859 145.074C123.251 144.915 123.699 144.836 124.203 144.836C124.768 144.836 125.286 144.927 125.757 145.109C126.233 145.286 126.646 145.543 126.996 145.879L126.632 146.586Z" fill="#0046F7"/>
<mask id="path-71-inside-17_718_68" fill="white">
<path fill-rule="evenodd" clip-rule="evenodd" d="M164 130C159.582 130 156 133.582 156 138V142V162V166C156 170.418 159.582 174 164 174H196C200.418 174 204 170.418 204 166V162V142V138C204 133.582 200.418 130 196 130H164Z"/>
</mask>
<path fill-rule="evenodd" clip-rule="evenodd" d="M164 130C159.582 130 156 133.582 156 138V142V162V166C156 170.418 159.582 174 164 174H196C200.418 174 204 170.418 204 166V162V142V138C204 133.582 200.418 130 196 130H164Z" fill="#0046F7"/>
<path d="M157 138C157 134.134 160.134 131 164 131V129C159.029 129 155 133.029 155 138H157ZM157 142V138H155V142H157ZM157 162V142H155V162H157ZM157 166V162H155V166H157ZM164 173C160.134 173 157 169.866 157 166H155C155 170.971 159.029 175 164 175V173ZM196 173H164V175H196V173ZM203 166C203 169.866 199.866 173 196 173V175C200.971 175 205 170.971 205 166H203ZM203 162V166H205V162H203ZM203 142V162H205V142H203ZM203 138V142H205V138H203ZM196 131C199.866 131 203 134.134 203 138H205C205 133.029 200.971 129 196 129V131ZM164 131H196V129H164V131Z" fill="#0046F7" mask="url(#path-71-inside-17_718_68)"/>
<path fill-rule="evenodd" clip-rule="evenodd" d="M164 131H196C199.866 131 203 134.134 203 138V162C203 165.866 199.866 169 196 169H164C160.134 169 157 165.866 157 162V138C157 134.134 160.134 131 164 131Z" fill="#E0D13A"/>
<path d="M185.185 149.974C185.185 150.725 185.063 151.409 184.821 152.025C184.583 152.641 184.244 153.171 183.806 153.614C183.367 154.053 182.842 154.393 182.231 154.636C181.619 154.879 180.94 155 180.194 155H176.414V144.948H180.194C180.94 144.948 181.619 145.069 182.231 145.312C182.842 145.555 183.367 145.898 183.806 146.341C184.244 146.78 184.583 147.309 184.821 147.93C185.063 148.546 185.185 149.227 185.185 149.974ZM183.659 149.974C183.659 149.377 183.577 148.842 183.414 148.371C183.25 147.895 183.017 147.494 182.714 147.167C182.415 146.836 182.051 146.584 181.622 146.411C181.197 146.238 180.721 146.152 180.194 146.152H177.912V153.796H180.194C180.721 153.796 181.197 153.71 181.622 153.537C182.051 153.364 182.415 153.115 182.714 152.788C183.017 152.457 183.25 152.055 183.414 151.584C183.577 151.113 183.659 150.576 183.659 149.974Z" fill="#0046F7"/>
<mask id="path-75-inside-18_718_68" fill="white">
<path fill-rule="evenodd" clip-rule="evenodd" d="M108 78C103.582 78 100 81.5817 100 86V90V110V114C100 118.418 103.582 122 108 122H140C144.418 122 148 118.418 148 114V110V90V86C148 81.5817 144.418 78 140 78H108Z"/>
</mask>
<path fill-rule="evenodd" clip-rule="evenodd" d="M108 78C103.582 78 100 81.5817 100 86V90V110V114C100 118.418 103.582 122 108 122H140C144.418 122 148 118.418 148 114V110V90V86C148 81.5817 144.418 78 140 78H108Z" fill="#0046F7"/>
<path d="M101 86C101 82.134 104.134 79 108 79V77C103.029 77 99 81.0294 99 86H101ZM101 90V86H99V90H101ZM101 110V90H99V110H101ZM101 114V110H99V114H101ZM108 121C104.134 121 101 117.866 101 114H99C99 118.971 103.029 123 108 123V121ZM140 121H108V123H140V121ZM147 114C147 117.866 143.866 121 140 121V123C144.971 123 149 118.971 149 114H147ZM147 110V114H149V110H147ZM147 90V110H149V90H147ZM147 86V90H149V86H147ZM140 79C143.866 79 147 82.134 147 86H149C149 81.0294 144.971 77 140 77V79ZM108 79H140V77H108V79Z" fill="#0046F7" mask="url(#path-75-inside-18_718_68)"/>
<path fill-rule="evenodd" clip-rule="evenodd" d="M108 79H140C143.866 79 147 82.134 147 86V110C147 113.866 143.866 117 140 117H108C104.134 117 101 113.866 101 110V86C101 82.134 104.134 79 108 79Z" fill="#E0D13A"/>
<path d="M131.591 92.948L128.455 103H127.111L124.661 95.545C124.605 95.3957 124.556 95.216 124.514 95.006C124.462 95.2207 124.413 95.4003 124.367 95.545L121.889 103H120.552L117.416 92.948H118.662C118.792 92.948 118.902 92.9807 118.991 93.046C119.079 93.1067 119.138 93.1907 119.166 93.298L121.147 100.025C121.184 100.156 121.217 100.298 121.245 100.452C121.277 100.606 121.31 100.767 121.343 100.935C121.375 100.767 121.408 100.606 121.441 100.452C121.478 100.298 121.52 100.156 121.567 100.025L123.835 93.298C123.863 93.2047 123.921 93.123 124.01 93.053C124.103 92.983 124.213 92.948 124.339 92.948H124.766C124.896 92.948 125.004 92.9807 125.088 93.046C125.172 93.1113 125.232 93.1953 125.27 93.298L127.531 100.025C127.615 100.282 127.689 100.573 127.755 100.9C127.811 100.578 127.871 100.286 127.937 100.025L129.925 93.298C129.948 93.2047 130.006 93.123 130.1 93.053C130.193 92.983 130.303 92.948 130.429 92.948H131.591Z" fill="#0046F7"/>
<path d="M240.756 196.948L236.668 207H235.331L231.243 196.948H232.433C232.563 196.948 232.668 196.981 232.748 197.046C232.832 197.111 232.895 197.195 232.937 197.298L235.653 204.13C235.718 204.298 235.781 204.482 235.842 204.683C235.907 204.884 235.965 205.094 236.017 205.313C236.063 205.094 236.115 204.884 236.171 204.683C236.227 204.482 236.287 204.298 236.353 204.13L239.062 197.298C239.094 197.205 239.153 197.123 239.237 197.053C239.325 196.983 239.433 196.948 239.559 196.948H240.756Z" fill="#0046F7"/>
<rect x="100" y="182" width="160" height="44" rx="7" fill="#0046F7"/>
<rect x="101" y="183" width="158" height="38" rx="7" fill="#E0D13A"/>
<path d="M182.258 208.099V209.009H176.742V208.099H182.258Z" fill="#0046F7"/>
</g>
<defs>
<clipPath id="clip0_718_68">
<rect width="608" height="304" rx="12" fill="white"/>
</clipPath>
</defs>
</svg>
