<svg width="608" height="200" viewBox="0 0 608 200" fill="none" xmlns="http://www.w3.org/2000/svg">
<rect width="608" height="200" rx="12" fill="#FFCCE4"/>
<path fill-rule="evenodd" clip-rule="evenodd" d="M236.794 82.8198C238.068 77.1604 243.689 73.6056 249.348 74.88L290.338 84.1097C295.997 85.3841 299.552 91.005 298.277 96.6645L290.201 132.53C288.927 138.189 283.306 141.744 277.647 140.47L236.657 131.24C230.998 129.966 227.443 124.345 228.718 118.685L236.794 82.8198Z" fill="#020123"/>
<path fill-rule="evenodd" clip-rule="evenodd" d="M289.472 87.9525L248.483 78.7227C244.946 77.9262 241.433 80.1479 240.636 83.6851L233.714 114.427C232.918 117.964 235.139 121.477 238.676 122.274L279.666 131.503C283.203 132.3 286.716 130.078 287.512 126.541L294.435 95.7992C295.231 92.262 293.009 88.7489 289.472 87.9525ZM270.178 109.567C269.375 113.133 265.064 113.82 261.518 113.022C258.977 112.45 257.266 111.44 256.307 110.728C255.42 110.077 254.981 109.633 255.429 107.645C255.835 105.842 256.724 104.858 257.498 105.054C258.124 105.214 258.231 105.688 258.523 106.981C258.544 107.076 258.567 107.176 258.59 107.281C258.987 108.963 260.256 110.498 262.818 111.075C265.4 111.656 266.649 110.796 266.871 109.813C267.092 108.829 266.301 108.134 263.114 106.986C258.555 105.334 256.771 103.791 257.421 100.902C258.118 97.807 261.829 96.5323 265.457 97.3491C267.258 97.7549 268.116 98.3177 268.88 98.8193C269.393 99.1562 269.865 99.4655 270.552 99.6808C271.583 100.005 271.377 100.586 270.887 101.961C270.804 102.194 270.713 102.45 270.618 102.732C270.228 103.893 269.88 104.482 269.158 104.341C268.556 104.225 268.485 103.841 268.312 102.897C268.29 102.774 268.265 102.641 268.238 102.498C267.924 100.833 267.077 99.7166 264.802 99.2044C262.793 98.7521 261.133 99.4333 260.874 100.581C260.667 101.503 261.626 102.215 265.337 103.524C268.965 104.815 270.796 106.82 270.178 109.567Z" fill="#FFFFE9"/>
<g filter="url(#filter0_d_829_122)">
<rect x="314.38" y="80.5383" width="63.0231" height="52.5193" rx="12" transform="rotate(-13.33 314.38 80.5383)" fill="white"/>
</g>
<path d="M354.92 92.8539L350.842 93.8202L353.508 105.071L351.612 105.52L348.946 94.2695L344.85 95.24L344.473 93.6481L354.543 91.262L354.92 92.8539Z" fill="#FF6F1E"/>
<rect x="401.799" y="80.6482" width="70.901" height="59.0842" rx="6" transform="rotate(-7.85 401.799 80.6482)" fill="#4F32FF"/>
<path d="M436.523 88.9676C436.328 87.5513 436.488 86.622 437.702 86.4547C438.512 86.3431 439.342 86.6822 439.744 89.5957L442.388 108.776C442.583 110.193 442.463 111.116 441.411 111.261C440.44 111.395 439.569 111.062 439.168 108.148L436.523 88.9676Z" fill="url(#paint0_linear_829_122)"/>
<path fill-rule="evenodd" clip-rule="evenodd" d="M413.147 76.433C408.837 77.0273 405.824 81.003 406.419 85.3131L411.44 121.732C412.034 126.042 416.01 129.054 420.32 128.46L467.144 122.004C471.454 121.41 474.467 117.434 473.872 113.124L468.851 76.7053C468.257 72.3953 464.281 69.383 459.971 69.9772L413.147 76.433ZM436.322 109.943C436.802 113.423 438.513 114.465 441.305 114.08C443.935 113.717 445.914 111.919 445.367 107.953L442.589 87.8015C442.109 84.3214 440.439 83.2734 437.606 83.664C434.976 84.0266 432.997 85.8251 433.544 89.7907L436.322 109.943Z" fill="url(#paint1_linear_829_122)"/>
<rect x="492.03" y="85.8378" width="63.0231" height="52.5193" rx="26.2596" transform="rotate(-22.44 492.03 85.8378)" fill="#FF269B"/>
<rect x="488.601" y="84.4128" width="63.0231" height="52.5193" rx="26.2596" transform="rotate(-22.44 488.601 84.4128)" fill="#1400F7"/>
<path fill-rule="evenodd" clip-rule="evenodd" d="M509.443 72.9643C496.038 78.5003 489.659 93.8547 495.195 107.259C500.731 120.664 516.085 127.043 529.49 121.507L539.198 117.497C552.603 111.961 558.982 96.607 553.446 83.2024C547.91 69.7978 532.556 63.4189 519.151 68.9549L509.443 72.9643ZM535.119 101.062C535.578 101.39 536.021 101.466 536.448 101.29C536.772 101.156 537.013 100.923 537.171 100.589C537.337 100.252 537.35 99.914 537.21 99.5742C537.105 99.3214 536.678 98.7118 535.927 97.7455L534.505 95.9469C532.765 93.7058 530.925 90.8959 528.984 87.5173C528.218 86.1781 527.679 85.3094 527.367 84.9113C526.47 83.7466 525.681 83.3045 525.002 83.5852C524.464 83.807 524.163 84.2739 524.096 84.9858C524.043 85.5071 524.089 86.1447 524.234 86.8988L524.593 88.7759C525.1 92.4229 525.397 96.0088 525.484 99.5335C523.35 96.8729 521.536 94.3294 520.044 91.903C518.794 89.885 517.87 88.5881 517.272 88.0122C516.778 87.5319 516.274 87.3978 515.76 87.6099C515.294 87.8024 514.997 88.1931 514.871 88.7818C514.705 89.479 514.81 90.7724 515.183 92.662L516.037 96.679L516.706 101.993C516.954 104.138 517.35 105.871 517.895 107.19C518.039 107.538 518.258 107.789 518.554 107.945C518.897 108.127 519.262 108.138 519.649 107.978C520.194 107.753 520.458 107.283 520.441 106.569C520.179 104.994 519.928 103.826 519.687 103.065L518.632 96.1762L518.183 93.8787C520.106 96.8115 522.042 99.5076 523.992 101.967L524.879 103.141C525.233 103.595 525.566 103.953 525.877 104.213C526.354 104.608 526.826 104.709 527.292 104.516C527.853 104.284 528.176 103.8 528.26 103.062C528.333 102.366 528.327 101.513 528.243 100.503L528.012 97.9623L527.431 89.8372C529.916 93.8606 531.581 96.4375 532.427 97.5678L533.696 99.4301C534.251 100.237 534.725 100.781 535.119 101.062Z" fill="#19A57B"/>
<path d="M132.489 99.3333C131.995 98.3451 132.396 97.144 133.385 96.6506L180.824 72.967C184.778 70.9935 189.582 72.5982 191.555 76.5512L210.547 114.593C211.041 115.582 210.64 116.783 209.651 117.276L162.211 140.96C158.258 142.933 153.454 141.328 151.481 137.375L132.489 99.3333Z" fill="#1D60E0"/>
<path fill-rule="evenodd" clip-rule="evenodd" d="M131.599 91.672C130.301 92.3198 129.775 93.8969 130.422 95.1944L148.016 130.436C150.607 135.626 156.916 137.733 162.106 135.142L206.745 112.857C208.043 112.209 208.57 110.632 207.922 109.334L190.328 74.0925C187.737 68.9022 181.429 66.7952 176.238 69.3864L131.599 91.672ZM151.073 90.2389C151.37 90.0066 151.602 89.8447 151.771 89.753L151.445 89.1014L146.122 91.7589L146.448 92.4105C146.65 92.3249 146.955 92.2334 147.365 92.1358C147.781 92.0351 148.135 92.0078 148.425 92.0539C148.682 92.0938 148.968 92.3065 149.283 92.692C149.594 93.0714 149.92 93.6007 150.259 94.2798L152.925 99.6212C153.108 99.9883 153.238 100.378 153.314 100.791C153.391 101.204 153.386 101.638 153.3 102.094C153.211 102.574 152.99 103.036 152.638 103.479C152.293 103.919 151.783 104.307 151.11 104.643C150.394 105.001 149.778 105.175 149.261 105.165C148.744 105.156 148.283 105.042 147.876 104.825C147.485 104.607 147.154 104.329 146.886 103.989C146.62 103.64 146.4 103.292 146.226 102.943L142.634 95.7477C142.533 95.5458 142.473 95.3424 142.455 95.1375C142.443 94.9295 142.523 94.7369 142.694 94.5596C142.795 94.4557 142.962 94.3151 143.194 94.1379C143.433 93.9576 143.636 93.8216 143.805 93.73L143.479 93.0784L138.055 95.7862L138.381 96.4378C138.54 96.3737 138.752 96.3096 139.018 96.2455C139.281 96.1754 139.511 96.1449 139.707 96.1542C139.982 96.1697 140.19 96.234 140.33 96.3473C140.474 96.4513 140.599 96.6104 140.706 96.8246L144.55 104.525C144.795 105.014 145.134 105.433 145.568 105.782C145.999 106.125 146.506 106.368 147.09 106.512C147.681 106.653 148.332 106.672 149.045 106.569C149.76 106.471 150.51 106.227 151.293 105.836C151.782 105.592 152.257 105.263 152.716 104.851C153.184 104.441 153.577 103.951 153.895 103.379C154.214 102.792 154.39 102.157 154.424 101.475C154.458 100.793 154.295 100.091 153.935 99.3695L151.108 93.7069C150.79 93.0706 150.561 92.5124 150.421 92.0321C150.28 91.5519 150.279 91.1895 150.417 90.9449C150.557 90.7065 150.776 90.4711 151.073 90.2389Z" fill="url(#paint2_linear_829_122)"/>
<path d="M71.3852 121.886C72.6424 122.186 73.9121 122.257 75.1989 122.079L75.3208 119.534C74.2877 119.71 73.3022 119.686 72.3244 119.452C69.4409 118.764 68.3722 116.79 69.1507 113.528C69.8601 110.554 71.7491 109.223 74.044 109.77C75.1216 110.028 75.987 110.687 76.4095 111.569L78.3456 109.995C77.864 108.699 76.4974 107.709 74.6216 107.261C70.4609 106.269 67.453 108.356 66.3531 112.966C65.1913 117.835 66.8854 120.812 71.3852 121.886Z" fill="#E90000"/>
<path fill-rule="evenodd" clip-rule="evenodd" d="M50.3074 81.2123C48.544 80.7915 46.7735 81.8799 46.3527 83.6433L35.3826 129.62C34.9618 131.383 36.0502 133.154 37.8136 133.575L39.7293 134.032L39.2722 135.947C38.8514 137.711 39.9398 139.481 41.7032 139.902L97.8969 153.31C99.6603 153.731 101.431 152.642 101.852 150.879L112.822 104.902C113.242 103.139 112.154 101.368 110.391 100.948L108.475 100.491L108.932 98.5749C109.353 96.8115 108.264 95.041 106.501 94.6202L50.3074 81.2123ZM47.6298 83.948C47.8823 82.89 48.9446 82.2369 50.0026 82.4894L106.196 95.8974C107.254 96.1498 107.907 97.2121 107.655 98.2701L96.6848 144.247C96.4324 145.305 95.3701 145.958 94.3121 145.705L38.1183 132.297C37.0603 132.045 36.4072 130.983 36.6597 129.925L47.6298 83.948Z" fill="#E90000"/>
<defs>
<filter id="filter0_d_829_122" x="310.821" y="68.4485" width="80.5526" height="72.7534" filterUnits="userSpaceOnUse" color-interpolation-filters="sRGB">
<feFlood flood-opacity="0" result="BackgroundImageFix"/>
<feColorMatrix in="SourceAlpha" type="matrix" values="0 0 0 0 0 0 0 0 0 0 0 0 0 0 0 0 0 0 127 0" result="hardAlpha"/>
<feMorphology radius="2" operator="erode" in="SourceAlpha" result="effect1_dropShadow_829_122"/>
<feOffset dy="6"/>
<feGaussianBlur stdDeviation="4"/>
<feComposite in2="hardAlpha" operator="out"/>
<feColorMatrix type="matrix" values="0 0 0 0 0.0116422 0 0 0 0 0 0 0 0 0 0.395833 0 0 0 0.15 0"/>
<feBlend mode="normal" in2="BackgroundImageFix" result="effect1_dropShadow_829_122"/>
<feBlend mode="normal" in="SourceGraphic" in2="effect1_dropShadow_829_122" result="shape"/>
</filter>
<linearGradient id="paint0_linear_829_122" x1="405.343" y1="77.5089" x2="474.948" y2="120.928" gradientUnits="userSpaceOnUse">
<stop stop-color="#5142FF"/>
<stop offset="0.515625" stop-color="#86A8FF"/>
<stop offset="1" stop-color="#FFF8BA"/>
</linearGradient>
<linearGradient id="paint1_linear_829_122" x1="405.343" y1="77.5089" x2="474.948" y2="120.928" gradientUnits="userSpaceOnUse">
<stop stop-color="#5142FF"/>
<stop offset="0.515625" stop-color="#86A8FF"/>
<stop offset="1" stop-color="#FFF8BA"/>
</linearGradient>
<linearGradient id="paint2_linear_829_122" x1="152.708" y1="139.834" x2="185.636" y2="64.6947" gradientUnits="userSpaceOnUse">
<stop stop-color="#729FF7"/>
<stop offset="1" stop-color="white"/>
</linearGradient>
</defs>
</svg>
