<svg width="32" height="32" viewBox="0 0 32 32" fill="none" xmlns="http://www.w3.org/2000/svg">
<style>
:root {
  --color: #2b2568;
}

@media (prefers-color-scheme: dark) {
  :root {
    --color: #E0D13A;
  }
}
</style>
<path d="M23.6465 31.316C27.7663 29.7293 30.5128 27.2094 23.4634 22.1695L20.4423 20.0229L20.6254 19.6495L22.3648 19.8362C30.055 20.6762 32.2523 19.2762 31.9776 14.0496C31.703 9.47639 30.4213 6.2098 23.4634 11.4364L20.3507 13.7696L20.0761 13.4897L20.9 11.5297C23.9212 4.34316 23.3719 1.72988 18.4282 0.423243C14.1253 -0.696732 10.6464 -0.0434143 13.3013 7.98309L14.4915 11.5297L14.1253 11.623L12.6605 10.3164C6.8928 5.18315 4.23784 4.90316 1.58288 9.28973C-0.79743 13.2097 -1.52983 16.7562 6.98435 16.5696L10.921 16.4763V16.9429L9.27311 17.9696C2.68149 22.0761 1.58288 24.4094 4.78714 28.4227C7.62521 31.9693 10.921 33.6492 13.3013 25.4361L14.3999 21.7028L14.7661 21.7961L15.2239 23.7561C16.9633 31.4093 18.8859 33.1826 23.6465 31.316Z" fill="var(--color)"/>
</svg>
